<?xml version="1.0" encoding="UTF-8" standalone="no"?>
<!DOCTYPE svg PUBLIC "-//W3C//DTD SVG 1.1//EN" "http://www.w3.org/Graphics/SVG/1.1/DTD/svg11.dtd">
<svg xmlns="http://www.w3.org/2000/svg" version="1.1" viewBox="0.00 0.00 512.00 512.00">
<g stroke-width="2.00" fill="none" stroke-linecap="butt">
<path stroke="#7f672b" vector-effect="non-scaling-stroke" d="
  M 153.60 52.39
  C 165.00 48.08 171.78 36.81 169.43 24.71
  Q 169.32 24.16 168.79 24.35
  C 157.33 28.50 150.92 40.24 153.20 52.17
  A 0.30 0.30 0.0 0 0 153.60 52.39"
/>
<path stroke="#7f672b" vector-effect="non-scaling-stroke" d="
  M 229.36 45.96
  Q 229.09 46.58 229.73 46.76
  C 241.24 50.06 253.12 42.09 256.84 31.28
  A 0.68 0.67 11.7 0 0 256.25 30.39
  Q 237.05 28.82 229.36 45.96"
/>
<path stroke="#7f672b" vector-effect="non-scaling-stroke" d="
  M 242.08 88.42
  C 244.18 76.41 237.34 65.15 225.97 61.02
  Q 225.40 60.81 225.31 61.42
  C 223.65 73.49 229.70 84.51 241.45 88.79
  Q 241.98 88.98 242.08 88.42"
/>
<path stroke="#7f672b" vector-effect="non-scaling-stroke" d="
  M 78.40 65.10
  C 70.70 74.72 72.52 87.63 80.07 96.64
  Q 80.62 97.30 81.12 96.60
  C 87.96 87.04 87.83 73.90 79.10 65.06
  Q 78.73 64.69 78.40 65.10"
/>
<path stroke="#7f672b" vector-effect="non-scaling-stroke" d="
  M 157.28 66.66
  C 161.47 77.84 172.99 84.66 184.87 82.20
  Q 185.44 82.08 185.22 81.55
  C 180.80 70.73 169.82 63.36 157.63 66.03
  A 0.48 0.47 -16.4 0 0 157.28 66.66"
/>
<path stroke="#7f672b" vector-effect="non-scaling-stroke" d="
  M 299.76 82.96
  Q 291.90 65.65 272.50 67.44
  A 0.66 0.66 0.0 0 0 271.95 68.33
  C 276.31 79.43 287.36 86.37 299.15 84.14
  Q 300.20 83.94 299.76 82.96"
/>
<path stroke="#7f672b" vector-effect="non-scaling-stroke" d="
  M 123.52 104.18
  C 114.19 97.49 100.18 97.10 91.93 106.18
  Q 91.58 106.57 91.99 106.88
  C 101.74 114.24 114.90 112.95 123.56 104.73
  Q 123.87 104.43 123.52 104.18"
/>
<path stroke="#7f672b" vector-effect="non-scaling-stroke" d="
  M 24.53 138.14
  Q 23.57 137.72 23.38 138.75
  C 21.22 150.37 28.44 161.92 39.51 165.77
  A 0.62 0.61 11.5 0 0 40.32 165.24
  Q 41.96 145.80 24.53 138.14"
/>
<path stroke="#7f672b" vector-effect="non-scaling-stroke" d="
  M 81.44 152.92
  C 69.39 150.71 58.69 157.28 54.02 168.48
  Q 53.60 169.47 54.66 169.65
  C 66.46 171.67 77.73 164.54 81.67 153.32
  Q 81.79 152.98 81.44 152.92"
/>
<path stroke="#7f672b" vector-effect="non-scaling-stroke" d="
  M 414.10 124.57
  C 419.77 128.50 416.54 137.22 409.75 137.22
  Q 399.38 137.21 389.06 137.23
  A 0.28 0.28 0.0 0 0 388.78 137.49
  Q 385.68 176.06 384.86 214.74
  Q 384.86 215.00 385.09 215.10
  Q 412.33 227.02 425.33 253.71
  Q 425.60 254.28 425.88 253.71
  Q 439.04 226.66 466.73 214.84
  Q 467.15 214.66 467.14 214.20
  L 465.99 180.50
  A 0.47 0.47 0.0 0 0 465.52 180.04
  Q 450.39 180.06 435.13 180.04
  Q 432.71 180.04 431.45 179.52
  C 425.94 177.26 425.55 169.41 430.95 166.88
  Q 432.75 166.04 436.77 166.04
  Q 450.76 166.05 464.74 166.04
  Q 465.09 166.04 465.07 165.69
  Q 463.37 130.05 458.04 94.78
  Q 457.96 94.31 457.48 94.31
  Q 445.77 94.32 433.99 94.31
  C 426.62 94.30 424.32 83.73 431.36 80.92
  Q 433.00 80.27 436.74 80.30
  Q 445.71 80.37 454.74 80.28
  Q 455.26 80.27 455.16 79.75
  C 451.79 63.01 446.64 46.83 437.42 32.34
  Q 434.76 28.17 431.01 25.00
  C 416.74 12.94 401.86 59.20 399.92 66.78
  Q 392.86 94.32 390.33 122.69
  Q 390.29 123.22 390.82 123.22
  Q 399.65 123.22 408.44 123.25
  Q 412.20 123.26 414.10 124.57"
/>
<path stroke="#7a7b7c" vector-effect="non-scaling-stroke" d="
  M 240.12 236.81
  C 236.61 238.00 232.73 236.10 231.49 232.77
  C 230.23 229.38 233.27 215.20 226.74 215.70
  C 222.78 216.00 219.56 218.18 216.23 220.33
  C 212.84 222.53 209.26 222.79 206.47 219.63
  C 203.12 215.82 204.78 207.03 199.50 204.12
  C 194.82 201.54 188.52 212.15 184.74 213.66
  C 180.30 215.43 177.41 212.78 175.40 208.82
  C 173.62 205.31 168.74 195.70 163.59 201.61
  Q 160.82 204.80 158.95 208.56
  Q 157.29 211.90 155.84 212.91
  C 150.93 216.35 147.38 212.60 144.26 209.00
  Q 141.51 205.82 137.67 204.13
  C 132.35 201.77 130.37 211.92 129.64 215.20
  C 128.27 221.42 123.66 223.96 117.96 220.30
  C 115.55 218.76 107.31 213.26 104.82 216.84
  C 102.69 219.90 102.91 224.64 103.12 228.43
  C 103.50 235.01 99.58 238.55 93.07 236.47
  C 90.17 235.54 80.60 232.15 79.46 237.26
  C 78.69 240.70 79.55 244.09 80.65 247.35
  C 83.03 254.34 80.68 258.96 72.85 258.54
  C 69.64 258.36 63.12 258.25 61.21 260.42
  C 58.38 263.63 62.82 270.25 64.77 273.31
  C 67.04 276.86 67.43 280.59 64.06 283.33
  C 61.43 285.47 56.06 285.64 52.62 287.13
  Q 50.62 288.00 52.80 288.00
  Q 167.38 288.00 281.75 287.99
  Q 282.17 287.99 282.36 287.85
  Q 282.80 287.53 282.30 287.33
  Q 279.06 286.05 275.61 285.29
  Q 271.32 284.34 269.92 283.09
  C 266.54 280.08 267.46 276.47 269.82 272.82
  C 271.38 270.41 276.38 262.52 272.62 260.11
  C 267.36 256.75 261.37 260.17 256.53 258.01
  C 250.45 255.29 252.93 249.40 254.38 244.73
  C 258.65 230.90 247.21 234.40 240.12 236.81"
/>
<path stroke="#63754a" vector-effect="non-scaling-stroke" d="
  M 418.64 287.25
  C 418.68 255.22 395.10 227.32 362.76 223.63
  Q 362.25 223.57 362.25 224.08
  Q 362.21 274.16 362.25 324.25
  Q 362.27 341.37 372.63 357.12
  Q 372.88 357.51 373.34 357.58
  Q 397.10 361.49 418.17 373.11
  A 0.27 0.26 -76.1 0 0 418.56 372.87
  Q 418.59 330.11 418.64 287.25"
/>
<path stroke="#587135" vector-effect="non-scaling-stroke" d="
  M 488.50 223.45
  C 455.83 228.51 432.65 254.00 432.63 287.50
  Q 432.61 334.62 432.62 381.76
  A 0.94 0.94 0.0 0 0 433.01 382.52
  L 436.02 384.74
  Q 436.47 385.07 437.02 384.97
  C 467.64 378.98 488.84 353.24 488.91 322.00
  Q 489.01 272.88 489.01 223.88
  A 0.44 0.44 0.0 0 0 488.50 223.45"
/>
<path stroke="#7f672b" vector-effect="non-scaling-stroke" d="
  M 290.87 368.84
  C 302.90 348.71 309.80 325.96 310.98 302.51
  Q 311.00 302.00 310.49 302.00
  L 23.76 302.00
  Q 23.29 302.00 23.31 302.47
  C 25.42 348.61 49.40 389.44 87.48 415.08
  Q 87.90 415.36 88.39 415.24
  Q 92.18 414.29 95.26 414.29
  Q 165.71 414.34 236.23 414.30
  Q 236.78 414.30 237.10 413.86
  Q 258.06 385.11 290.09 369.56
  A 1.92 1.85 1.1 0 0 290.87 368.84"
/>
<path stroke="#786452" vector-effect="non-scaling-stroke" d="
  M 357.92 446.75
  C 357.99 456.73 344.02 457.11 343.97 448.75
  Q 343.71 409.46 343.68 370.23
  Q 343.68 369.97 343.42 369.98
  Q 327.98 370.89 313.21 375.45
  Q 312.72 375.60 312.72 376.11
  Q 312.67 411.31 312.71 446.50
  Q 312.72 450.18 310.77 452.43
  C 307.87 455.79 302.39 455.45 299.93 451.70
  Q 298.69 449.80 298.69 446.02
  Q 298.67 413.74 298.68 381.50
  Q 298.69 380.96 298.19 381.18
  Q 281.77 388.74 268.11 400.57
  Q 267.71 400.91 267.71 401.44
  Q 267.73 424.59 267.72 447.76
  C 267.71 456.66 253.77 457.75 253.76 446.74
  Q 253.74 431.22 253.66 416.41
  Q 253.66 415.24 252.92 416.15
  Q 227.37 447.77 224.59 488.54
  A 0.43 0.43 0.0 0 0 225.02 489.00
  L 476.50 489.00
  A 0.27 0.27 0.0 0 0 476.77 488.72
  Q 473.99 447.61 448.18 415.84
  Q 447.79 415.36 447.78 415.98
  Q 447.54 433.46 447.74 446.50
  C 447.85 454.07 438.95 458.27 434.81 451.56
  Q 433.67 449.69 433.67 445.21
  Q 433.71 423.38 433.66 401.49
  Q 433.66 400.94 433.25 400.58
  Q 419.62 388.78 403.25 381.22
  Q 402.70 380.97 402.70 381.57
  Q 402.60 414.41 402.67 447.25
  C 402.68 454.28 394.04 457.72 390.04 451.83
  Q 388.69 449.86 388.70 445.87
  Q 388.71 410.97 388.69 376.10
  Q 388.69 375.62 388.24 375.48
  Q 373.57 370.89 358.22 370.02
  Q 357.66 369.99 357.66 370.55
  Q 357.66 408.65 357.92 446.75"
/>
<path stroke="#7b5d23" vector-effect="non-scaling-stroke" d="
  M 215.56 458.53
  C 218.36 448.28 222.41 438.21 227.59 428.87
  A 0.37 0.37 0.0 0 0 227.27 428.32
  L 94.02 428.32
  A 4.35 4.34 0.1 0 0 89.67 432.64
  Q 89.62 442.85 89.66 453.75
  C 89.67 458.03 92.02 459.00 95.97 459.00
  Q 155.13 459.01 214.94 459.00
  A 0.64 0.64 0.0 0 0 215.56 458.53"
/>
</g>
<path fill="#000000" d="
  M 252.25 66.67
  Q 260.24 83.28 253.21 99.68
  C 248.93 109.66 229.58 99.43 224.68 95.09
  Q 208.77 81.01 211.44 59.48
  A 0.31 0.31 0.0 0 0 211.14 59.13
  Q 199.03 58.61 186.98 60.00
  A 0.26 0.26 0.0 0 0 186.84 60.46
  Q 198.32 70.27 200.44 85.29
  C 201.20 90.71 197.44 93.14 192.78 94.66
  C 172.48 101.29 152.11 91.38 144.09 71.60
  Q 143.89 71.12 143.42 71.32
  Q 129.45 77.17 116.85 85.59
  Q 116.29 85.96 116.94 86.12
  Q 130.54 89.30 138.69 99.53
  C 145.15 107.64 128.22 119.62 122.13 122.26
  Q 101.61 131.14 82.55 117.46
  Q 82.12 117.14 81.78 117.56
  Q 73.39 127.90 66.84 139.50
  A 0.21 0.21 0.0 0 0 67.07 139.81
  Q 80.52 136.38 93.17 142.08
  C 100.66 145.46 94.24 161.13 91.23 165.73
  Q 77.25 187.12 50.79 183.26
  Q 50.27 183.19 50.16 183.69
  Q 48.03 193.27 47.24 202.99
  Q 46.87 207.57 45.93 209.31
  C 42.54 215.58 32.50 212.63 32.98 205.51
  Q 33.85 192.74 36.58 180.19
  Q 36.69 179.66 36.18 179.48
  Q 14.83 171.85 10.04 150.97
  C 8.18 142.89 9.03 133.48 12.72 126.24
  C 14.26 123.21 17.74 122.56 21.06 123.06
  Q 39.30 125.81 49.45 141.93
  A 0.21 0.20 41.9 0 0 49.80 141.92
  Q 58.59 123.80 71.33 108.20
  Q 71.70 107.75 71.29 107.34
  C 54.88 91.12 55.77 65.72 72.86 50.63
  C 77.33 46.68 80.82 48.23 85.09 51.65
  Q 97.65 61.70 100.16 79.50
  Q 100.26 80.22 100.84 79.78
  Q 118.62 66.33 139.26 57.89
  Q 139.91 57.62 139.79 56.93
  Q 137.89 46.50 140.10 37.54
  C 143.92 22.04 157.47 10.68 173.50 8.99
  C 177.50 8.56 179.80 11.55 181.17 15.15
  Q 187.20 30.91 179.84 46.46
  A 0.23 0.22 -81.2 0 0 180.07 46.78
  Q 197.23 44.27 214.55 45.31
  Q 215.08 45.34 215.22 44.83
  C 221.73 21.44 246.16 10.19 268.01 19.52
  C 271.60 21.06 272.42 24.46 271.89 28.24
  Q 269.79 43.23 257.99 53.11
  A 0.32 0.31 -55.6 0 0 258.09 53.65
  L 263.16 55.38
  Q 263.64 55.54 264.13 55.38
  C 288.16 47.54 312.75 63.11 315.16 88.36
  C 315.53 92.15 312.67 94.44 309.25 95.79
  C 286.66 104.75 263.51 91.54 257.45 68.45
  Q 257.38 68.19 257.12 68.10
  L 252.39 66.51
  A 0.12 0.12 0.0 0 0 252.25 66.67
  Z
  M 153.60 52.39
  C 165.00 48.08 171.78 36.81 169.43 24.71
  Q 169.32 24.16 168.79 24.35
  C 157.33 28.50 150.92 40.24 153.20 52.17
  A 0.30 0.30 0.0 0 0 153.60 52.39
  Z
  M 229.36 45.96
  Q 229.09 46.58 229.73 46.76
  C 241.24 50.06 253.12 42.09 256.84 31.28
  A 0.68 0.67 11.7 0 0 256.25 30.39
  Q 237.05 28.82 229.36 45.96
  Z
  M 242.08 88.42
  C 244.18 76.41 237.34 65.15 225.97 61.02
  Q 225.40 60.81 225.31 61.42
  C 223.65 73.49 229.70 84.51 241.45 88.79
  Q 241.98 88.98 242.08 88.42
  Z
  M 78.40 65.10
  C 70.70 74.72 72.52 87.63 80.07 96.64
  Q 80.62 97.30 81.12 96.60
  C 87.96 87.04 87.83 73.90 79.10 65.06
  Q 78.73 64.69 78.40 65.10
  Z
  M 157.28 66.66
  C 161.47 77.84 172.99 84.66 184.87 82.20
  Q 185.44 82.08 185.22 81.55
  C 180.80 70.73 169.82 63.36 157.63 66.03
  A 0.48 0.47 -16.4 0 0 157.28 66.66
  Z
  M 299.76 82.96
  Q 291.90 65.65 272.50 67.44
  A 0.66 0.66 0.0 0 0 271.95 68.33
  C 276.31 79.43 287.36 86.37 299.15 84.14
  Q 300.20 83.94 299.76 82.96
  Z
  M 123.52 104.18
  C 114.19 97.49 100.18 97.10 91.93 106.18
  Q 91.58 106.57 91.99 106.88
  C 101.74 114.24 114.90 112.95 123.56 104.73
  Q 123.87 104.43 123.52 104.18
  Z
  M 24.53 138.14
  Q 23.57 137.72 23.38 138.75
  C 21.22 150.37 28.44 161.92 39.51 165.77
  A 0.62 0.61 11.5 0 0 40.32 165.24
  Q 41.96 145.80 24.53 138.14
  Z
  M 81.44 152.92
  C 69.39 150.71 58.69 157.28 54.02 168.48
  Q 53.60 169.47 54.66 169.65
  C 66.46 171.67 77.73 164.54 81.67 153.32
  Q 81.79 152.98 81.44 152.92
  Z"
/>
<path fill="#000000" d="
  M 311.24 361.39
  Q 332.68 355.12 355.04 355.81
  Q 355.75 355.83 355.45 355.18
  C 349.90 343.41 348.25 332.30 348.24 318.29
  Q 348.21 267.02 348.23 215.75
  C 348.24 205.78 364.95 209.70 370.39 210.59
  Q 370.96 210.69 370.97 210.11
  C 371.87 174.62 373.80 139.53 378.36 103.76
  C 381.94 75.69 388.47 45.59 404.31 22.33
  C 411.35 12.00 423.07 5.36 435.14 11.14
  C 443.61 15.21 449.32 24.11 453.84 32.67
  C 463.20 50.42 468.25 70.55 471.44 90.01
  C 477.92 129.54 480.04 169.97 481.00 209.98
  Q 481.01 210.56 481.58 210.46
  C 486.01 209.68 496.27 207.80 500.00 210.39
  C 502.47 212.12 503.00 214.35 503.00 217.48
  Q 503.01 269.87 503.00 322.25
  C 503.00 356.00 481.63 385.34 449.73 396.18
  A 0.26 0.26 0.0 0 0 449.63 396.61
  Q 489.78 437.68 491.00 495.49
  C 491.14 501.95 486.15 503.00 480.58 503.00
  Q 350.11 503.00 219.65 503.00
  C 214.50 503.00 210.39 501.40 210.40 495.76
  Q 210.42 484.42 212.26 473.37
  A 0.32 0.31 -85.3 0 0 211.95 473.00
  Q 154.50 473.01 97.23 472.99
  C 87.93 472.99 80.43 470.17 77.05 461.24
  Q 75.62 457.48 75.66 449.11
  C 75.69 441.67 74.62 432.62 77.17 425.59
  Q 77.36 425.07 76.90 424.76
  C 34.89 395.36 10.33 349.17 9.00 297.85
  C 8.83 291.40 10.86 287.70 17.75 288.01
  Q 21.18 288.16 33.99 287.93
  Q 34.53 287.92 34.70 287.41
  Q 38.02 277.59 47.82 274.06
  Q 48.92 273.66 48.43 272.60
  C 41.87 258.37 50.19 246.56 64.84 244.66
  Q 65.49 244.57 65.40 243.93
  C 63.58 230.19 70.72 220.15 85.51 220.69
  Q 87.07 220.74 88.65 220.84
  Q 89.15 220.87 89.23 220.38
  C 91.59 205.03 102.52 197.59 117.56 204.02
  Q 118.07 204.24 118.29 203.73
  C 124.18 189.67 137.69 184.97 149.94 195.28
  A 0.66 0.65 36.5 0 0 150.91 195.14
  C 159.45 182.10 174.60 183.12 183.48 195.13
  Q 183.80 195.57 184.25 195.25
  C 197.36 185.76 209.50 188.84 215.94 203.69
  Q 216.16 204.20 216.67 204.01
  C 218.43 203.38 220.42 202.48 222.16 202.20
  C 235.94 199.98 243.01 207.64 245.04 220.42
  Q 245.12 220.95 245.66 220.88
  C 261.33 218.87 271.18 228.46 268.78 243.99
  A 0.56 0.56 0.0 0 0 269.25 244.63
  C 285.47 247.23 291.52 257.96 285.72 273.05
  A 0.56 0.56 0.0 0 0 286.03 273.77
  C 292.56 276.56 297.46 280.41 299.51 287.46
  Q 299.65 287.94 300.14 287.95
  Q 312.93 288.13 316.74 288.00
  C 323.30 287.76 325.34 291.28 325.23 297.47
  Q 324.63 330.69 310.83 360.92
  Q 310.52 361.60 311.24 361.39
  Z
  M 414.10 124.57
  C 419.77 128.50 416.54 137.22 409.75 137.22
  Q 399.38 137.21 389.06 137.23
  A 0.28 0.28 0.0 0 0 388.78 137.49
  Q 385.68 176.06 384.86 214.74
  Q 384.86 215.00 385.09 215.10
  Q 412.33 227.02 425.33 253.71
  Q 425.60 254.28 425.88 253.71
  Q 439.04 226.66 466.73 214.84
  Q 467.15 214.66 467.14 214.20
  L 465.99 180.50
  A 0.47 0.47 0.0 0 0 465.52 180.04
  Q 450.39 180.06 435.13 180.04
  Q 432.71 180.04 431.45 179.52
  C 425.94 177.26 425.55 169.41 430.95 166.88
  Q 432.75 166.04 436.77 166.04
  Q 450.76 166.05 464.74 166.04
  Q 465.09 166.04 465.07 165.69
  Q 463.37 130.05 458.04 94.78
  Q 457.96 94.31 457.48 94.31
  Q 445.77 94.32 433.99 94.31
  C 426.62 94.30 424.32 83.73 431.36 80.92
  Q 433.00 80.27 436.74 80.30
  Q 445.71 80.37 454.74 80.28
  Q 455.26 80.27 455.16 79.75
  C 451.79 63.01 446.64 46.83 437.42 32.34
  Q 434.76 28.17 431.01 25.00
  C 416.74 12.94 401.86 59.20 399.92 66.78
  Q 392.86 94.32 390.33 122.69
  Q 390.29 123.22 390.82 123.22
  Q 399.65 123.22 408.44 123.25
  Q 412.20 123.26 414.10 124.57
  Z
  M 240.12 236.81
  C 236.61 238.00 232.73 236.10 231.49 232.77
  C 230.23 229.38 233.27 215.20 226.74 215.70
  C 222.78 216.00 219.56 218.18 216.23 220.33
  C 212.84 222.53 209.26 222.79 206.47 219.63
  C 203.12 215.82 204.78 207.03 199.50 204.12
  C 194.82 201.54 188.52 212.15 184.74 213.66
  C 180.30 215.43 177.41 212.78 175.40 208.82
  C 173.62 205.31 168.74 195.70 163.59 201.61
  Q 160.82 204.80 158.95 208.56
  Q 157.29 211.90 155.84 212.91
  C 150.93 216.35 147.38 212.60 144.26 209.00
  Q 141.51 205.82 137.67 204.13
  C 132.35 201.77 130.37 211.92 129.64 215.20
  C 128.27 221.42 123.66 223.96 117.96 220.30
  C 115.55 218.76 107.31 213.26 104.82 216.84
  C 102.69 219.90 102.91 224.64 103.12 228.43
  C 103.50 235.01 99.58 238.55 93.07 236.47
  C 90.17 235.54 80.60 232.15 79.46 237.26
  C 78.69 240.70 79.55 244.09 80.65 247.35
  C 83.03 254.34 80.68 258.96 72.85 258.54
  C 69.64 258.36 63.12 258.25 61.21 260.42
  C 58.38 263.63 62.82 270.25 64.77 273.31
  C 67.04 276.86 67.43 280.59 64.06 283.33
  C 61.43 285.47 56.06 285.64 52.62 287.13
  Q 50.62 288.00 52.80 288.00
  Q 167.38 288.00 281.75 287.99
  Q 282.17 287.99 282.36 287.85
  Q 282.80 287.53 282.30 287.33
  Q 279.06 286.05 275.61 285.29
  Q 271.32 284.34 269.92 283.09
  C 266.54 280.08 267.46 276.47 269.82 272.82
  C 271.38 270.41 276.38 262.52 272.62 260.11
  C 267.36 256.75 261.37 260.17 256.53 258.01
  C 250.45 255.29 252.93 249.40 254.38 244.73
  C 258.65 230.90 247.21 234.40 240.12 236.81
  Z
  M 418.64 287.25
  C 418.68 255.22 395.10 227.32 362.76 223.63
  Q 362.25 223.57 362.25 224.08
  Q 362.21 274.16 362.25 324.25
  Q 362.27 341.37 372.63 357.12
  Q 372.88 357.51 373.34 357.58
  Q 397.10 361.49 418.17 373.11
  A 0.27 0.26 -76.1 0 0 418.56 372.87
  Q 418.59 330.11 418.64 287.25
  Z
  M 488.50 223.45
  C 455.83 228.51 432.65 254.00 432.63 287.50
  Q 432.61 334.62 432.62 381.76
  A 0.94 0.94 0.0 0 0 433.01 382.52
  L 436.02 384.74
  Q 436.47 385.07 437.02 384.97
  C 467.64 378.98 488.84 353.24 488.91 322.00
  Q 489.01 272.88 489.01 223.88
  A 0.44 0.44 0.0 0 0 488.50 223.45
  Z
  M 290.87 368.84
  C 302.90 348.71 309.80 325.96 310.98 302.51
  Q 311.00 302.00 310.49 302.00
  L 23.76 302.00
  Q 23.29 302.00 23.31 302.47
  C 25.42 348.61 49.40 389.44 87.48 415.08
  Q 87.90 415.36 88.39 415.24
  Q 92.18 414.29 95.26 414.29
  Q 165.71 414.34 236.23 414.30
  Q 236.78 414.30 237.10 413.86
  Q 258.06 385.11 290.09 369.56
  A 1.92 1.85 1.1 0 0 290.87 368.84
  Z
  M 357.92 446.75
  C 357.99 456.73 344.02 457.11 343.97 448.75
  Q 343.71 409.46 343.68 370.23
  Q 343.68 369.97 343.42 369.98
  Q 327.98 370.89 313.21 375.45
  Q 312.72 375.60 312.72 376.11
  Q 312.67 411.31 312.71 446.50
  Q 312.72 450.18 310.77 452.43
  C 307.87 455.79 302.39 455.45 299.93 451.70
  Q 298.69 449.80 298.69 446.02
  Q 298.67 413.74 298.68 381.50
  Q 298.69 380.96 298.19 381.18
  Q 281.77 388.74 268.11 400.57
  Q 267.71 400.91 267.71 401.44
  Q 267.73 424.59 267.72 447.76
  C 267.71 456.66 253.77 457.75 253.76 446.74
  Q 253.74 431.22 253.66 416.41
  Q 253.66 415.24 252.92 416.15
  Q 227.37 447.77 224.59 488.54
  A 0.43 0.43 0.0 0 0 225.02 489.00
  L 476.50 489.00
  A 0.27 0.27 0.0 0 0 476.77 488.72
  Q 473.99 447.61 448.18 415.84
  Q 447.79 415.36 447.78 415.98
  Q 447.54 433.46 447.74 446.50
  C 447.85 454.07 438.95 458.27 434.81 451.56
  Q 433.67 449.69 433.67 445.21
  Q 433.71 423.38 433.66 401.49
  Q 433.66 400.94 433.25 400.58
  Q 419.62 388.78 403.25 381.22
  Q 402.70 380.97 402.70 381.57
  Q 402.60 414.41 402.67 447.25
  C 402.68 454.28 394.04 457.72 390.04 451.83
  Q 388.69 449.86 388.70 445.87
  Q 388.71 410.97 388.69 376.10
  Q 388.69 375.62 388.24 375.48
  Q 373.57 370.89 358.22 370.02
  Q 357.66 369.99 357.66 370.55
  Q 357.66 408.65 357.92 446.75
  Z
  M 215.56 458.53
  C 218.36 448.28 222.41 438.21 227.59 428.87
  A 0.37 0.37 0.0 0 0 227.27 428.32
  L 94.02 428.32
  A 4.35 4.34 0.1 0 0 89.67 432.64
  Q 89.62 442.85 89.66 453.75
  C 89.67 458.03 92.02 459.00 95.97 459.00
  Q 155.13 459.01 214.94 459.00
  A 0.64 0.64 0.0 0 0 215.56 458.53
  Z"
/>
<path fill="#fdcd56" d="
  M 409.75 137.22
  C 416.54 137.22 419.77 128.50 414.10 124.57
  Q 412.20 123.26 408.44 123.25
  Q 399.65 123.22 390.82 123.22
  Q 390.29 123.22 390.33 122.69
  Q 392.86 94.32 399.92 66.78
  C 401.86 59.20 416.74 12.94 431.01 25.00
  Q 434.76 28.17 437.42 32.34
  C 446.64 46.83 451.79 63.01 455.16 79.75
  Q 455.26 80.27 454.74 80.28
  Q 445.71 80.37 436.74 80.30
  Q 433.00 80.27 431.36 80.92
  C 424.32 83.73 426.62 94.30 433.99 94.31
  Q 445.77 94.32 457.48 94.31
  Q 457.96 94.31 458.04 94.78
  Q 463.37 130.05 465.07 165.69
  Q 465.09 166.04 464.74 166.04
  Q 450.76 166.05 436.77 166.04
  Q 432.75 166.04 430.95 166.88
  C 425.55 169.41 425.94 177.26 431.45 179.52
  Q 432.71 180.04 435.13 180.04
  Q 450.39 180.06 465.52 180.04
  A 0.47 0.47 0.0 0 1 465.99 180.50
  L 467.14 214.20
  Q 467.15 214.66 466.73 214.84
  Q 439.04 226.66 425.88 253.71
  Q 425.60 254.28 425.33 253.71
  Q 412.33 227.02 385.09 215.10
  Q 384.86 215.00 384.86 214.74
  Q 385.68 176.06 388.78 137.49
  A 0.28 0.28 0.0 0 1 389.06 137.23
  Q 399.38 137.21 409.75 137.22
  Z"
/>
<path fill="#fdcd56" d="
  M 169.43 24.71
  C 171.78 36.81 165.00 48.08 153.60 52.39
  A 0.30 0.30 0.0 0 1 153.20 52.17
  C 150.92 40.24 157.33 28.50 168.79 24.35
  Q 169.32 24.16 169.43 24.71
  Z"
/>
<path fill="#fdcd56" d="
  M 229.36 45.96
  Q 237.05 28.82 256.25 30.39
  A 0.68 0.67 11.7 0 1 256.84 31.28
  C 253.12 42.09 241.24 50.06 229.73 46.76
  Q 229.09 46.58 229.36 45.96
  Z"
/>
<path fill="#fdcd56" d="
  M 225.97 61.02
  C 237.34 65.15 244.18 76.41 242.08 88.42
  Q 241.98 88.98 241.45 88.79
  C 229.70 84.51 223.65 73.49 225.31 61.42
  Q 225.40 60.81 225.97 61.02
  Z"
/>
<path fill="#fdcd56" d="
  M 80.07 96.64
  C 72.52 87.63 70.70 74.72 78.40 65.10
  Q 78.73 64.69 79.10 65.06
  C 87.83 73.90 87.96 87.04 81.12 96.60
  Q 80.62 97.30 80.07 96.64
  Z"
/>
<path fill="#fdcd56" d="
  M 184.87 82.20
  C 172.99 84.66 161.47 77.84 157.28 66.66
  A 0.48 0.47 -16.4 0 1 157.63 66.03
  C 169.82 63.36 180.80 70.73 185.22 81.55
  Q 185.44 82.08 184.87 82.20
  Z"
/>
<path fill="#fdcd56" d="
  M 299.76 82.96
  Q 300.20 83.94 299.15 84.14
  C 287.36 86.37 276.31 79.43 271.95 68.33
  A 0.66 0.66 0.0 0 1 272.50 67.44
  Q 291.90 65.65 299.76 82.96
  Z"
/>
<path fill="#fdcd56" d="
  M 91.93 106.18
  C 100.18 97.10 114.19 97.49 123.52 104.18
  Q 123.87 104.43 123.56 104.73
  C 114.90 112.95 101.74 114.24 91.99 106.88
  Q 91.58 106.57 91.93 106.18
  Z"
/>
<path fill="#fdcd56" d="
  M 24.53 138.14
  Q 41.96 145.80 40.32 165.24
  A 0.62 0.61 11.5 0 1 39.51 165.77
  C 28.44 161.92 21.22 150.37 23.38 138.75
  Q 23.57 137.72 24.53 138.14
  Z"
/>
<path fill="#fdcd56" d="
  M 54.02 168.48
  C 58.69 157.28 69.39 150.71 81.44 152.92
  Q 81.79 152.98 81.67 153.32
  C 77.73 164.54 66.46 171.67 54.66 169.65
  Q 53.60 169.47 54.02 168.48
  Z"
/>
<path fill="#f4f6f8" d="
  M 231.49 232.77
  C 232.73 236.10 236.61 238.00 240.12 236.81
  C 247.21 234.40 258.65 230.90 254.38 244.73
  C 252.93 249.40 250.45 255.29 256.53 258.01
  C 261.37 260.17 267.36 256.75 272.62 260.11
  C 276.38 262.52 271.38 270.41 269.82 272.82
  C 267.46 276.47 266.54 280.08 269.92 283.09
  Q 271.32 284.34 275.61 285.29
  Q 279.06 286.05 282.30 287.33
  Q 282.80 287.53 282.36 287.85
  Q 282.17 287.99 281.75 287.99
  Q 167.38 288.00 52.80 288.00
  Q 50.62 288.00 52.62 287.13
  C 56.06 285.64 61.43 285.47 64.06 283.33
  C 67.43 280.59 67.04 276.86 64.77 273.31
  C 62.82 270.25 58.38 263.63 61.21 260.42
  C 63.12 258.25 69.64 258.36 72.85 258.54
  C 80.68 258.96 83.03 254.34 80.65 247.35
  C 79.55 244.09 78.69 240.70 79.46 237.26
  C 80.60 232.15 90.17 235.54 93.07 236.47
  C 99.58 238.55 103.50 235.01 103.12 228.43
  C 102.91 224.64 102.69 219.90 104.82 216.84
  C 107.31 213.26 115.55 218.76 117.96 220.30
  C 123.66 223.96 128.27 221.42 129.64 215.20
  C 130.37 211.92 132.35 201.77 137.67 204.13
  Q 141.51 205.82 144.26 209.00
  C 147.38 212.60 150.93 216.35 155.84 212.91
  Q 157.29 211.90 158.95 208.56
  Q 160.82 204.80 163.59 201.61
  C 168.74 195.70 173.62 205.31 175.40 208.82
  C 177.41 212.78 180.30 215.43 184.74 213.66
  C 188.52 212.15 194.82 201.54 199.50 204.12
  C 204.78 207.03 203.12 215.82 206.47 219.63
  C 209.26 222.79 212.84 222.53 216.23 220.33
  C 219.56 218.18 222.78 216.00 226.74 215.70
  C 233.27 215.20 230.23 229.38 231.49 232.77
  Z"
/>
<path fill="#c6ea94" d="
  M 362.76 223.63
  C 395.10 227.32 418.68 255.22 418.64 287.25
  Q 418.59 330.11 418.56 372.87
  A 0.27 0.26 -76.1 0 1 418.17 373.11
  Q 397.10 361.49 373.34 357.58
  Q 372.88 357.51 372.63 357.12
  Q 362.27 341.37 362.25 324.25
  Q 362.21 274.16 362.25 224.08
  Q 362.25 223.57 362.76 223.63
  Z"
/>
<path fill="#afe269" d="
  M 432.63 287.50
  C 432.65 254.00 455.83 228.51 488.50 223.45
  A 0.44 0.44 0.0 0 1 489.01 223.88
  Q 489.01 272.88 488.91 322.00
  C 488.84 353.24 467.64 378.98 437.02 384.97
  Q 436.47 385.07 436.02 384.74
  L 433.01 382.52
  A 0.94 0.94 0.0 0 1 432.62 381.76
  Q 432.61 334.62 432.63 287.50
  Z"
/>
<path fill="#fdcd56" d="
  M 310.98 302.51
  C 309.80 325.96 302.90 348.71 290.87 368.84
  A 1.92 1.85 1.1 0 1 290.09 369.56
  Q 258.06 385.11 237.10 413.86
  Q 236.78 414.30 236.23 414.30
  Q 165.71 414.34 95.26 414.29
  Q 92.18 414.29 88.39 415.24
  Q 87.90 415.36 87.48 415.08
  C 49.40 389.44 25.42 348.61 23.31 302.47
  Q 23.29 302.00 23.76 302.00
  L 310.49 302.00
  Q 311.00 302.00 310.98 302.51
  Z"
/>
<path fill="#efc7a4" d="
  M 343.97 448.75
  C 344.02 457.11 357.99 456.73 357.92 446.75
  Q 357.66 408.65 357.66 370.55
  Q 357.66 369.99 358.22 370.02
  Q 373.57 370.89 388.24 375.48
  Q 388.69 375.62 388.69 376.10
  Q 388.71 410.97 388.70 445.87
  Q 388.69 449.86 390.04 451.83
  C 394.04 457.72 402.68 454.28 402.67 447.25
  Q 402.60 414.41 402.70 381.57
  Q 402.70 380.97 403.25 381.22
  Q 419.62 388.78 433.25 400.58
  Q 433.66 400.94 433.66 401.49
  Q 433.71 423.38 433.67 445.21
  Q 433.67 449.69 434.81 451.56
  C 438.95 458.27 447.85 454.07 447.74 446.50
  Q 447.54 433.46 447.78 415.98
  Q 447.79 415.36 448.18 415.84
  Q 473.99 447.61 476.77 488.72
  A 0.27 0.27 0.0 0 1 476.50 489.00
  L 225.02 489.00
  A 0.43 0.43 0.0 0 1 224.59 488.54
  Q 227.37 447.77 252.92 416.15
  Q 253.66 415.24 253.66 416.41
  Q 253.74 431.22 253.76 446.74
  C 253.77 457.75 267.71 456.66 267.72 447.76
  Q 267.73 424.59 267.71 401.44
  Q 267.71 400.91 268.11 400.57
  Q 281.77 388.74 298.19 381.18
  Q 298.69 380.96 298.68 381.50
  Q 298.67 413.74 298.69 446.02
  Q 298.69 449.80 299.93 451.70
  C 302.39 455.45 307.87 455.79 310.77 452.43
  Q 312.72 450.18 312.71 446.50
  Q 312.67 411.31 312.72 376.11
  Q 312.72 375.60 313.21 375.45
  Q 327.98 370.89 343.42 369.98
  Q 343.68 369.97 343.68 370.23
  Q 343.71 409.46 343.97 448.75
  Z"
/>
<path fill="#f5b945" d="
  M 227.59 428.87
  C 222.41 438.21 218.36 448.28 215.56 458.53
  A 0.64 0.64 0.0 0 1 214.94 459.00
  Q 155.13 459.01 95.97 459.00
  C 92.02 459.00 89.67 458.03 89.66 453.75
  Q 89.62 442.85 89.67 432.64
  A 4.35 4.34 0.1 0 1 94.02 428.32
  L 227.27 428.32
  A 0.37 0.37 0.0 0 1 227.59 428.87
  Z"
/>
</svg>
