<?xml version="1.0" encoding="UTF-8" standalone="no"?>
<!DOCTYPE svg PUBLIC "-//W3C//DTD SVG 1.1//EN" "http://www.w3.org/Graphics/SVG/1.1/DTD/svg11.dtd">
<svg xmlns="http://www.w3.org/2000/svg" version="1.1" viewBox="0.00 0.00 512.00 512.00">
<g stroke-width="2.00" fill="none" stroke-linecap="butt">
<path stroke="#807700" vector-effect="non-scaling-stroke" d="
  M 350.80 463.24
  C 355.06 456.48 360.74 460.17 366.11 462.56
  C 390.61 473.47 417.95 466.55 436.01 447.27"
/>
<path stroke="#807a2b" vector-effect="non-scaling-stroke" d="
  M 436.01 447.27
  Q 439.71 443.48 441.92 440.18
  C 458.97 414.70 457.88 381.32 438.46 357.57
  C 431.25 348.76 423.02 343.25 412.80 337.69
  Q 360.42 309.21 308.01 280.76
  Q 305.76 279.54 303.65 280.71"
/>
<path stroke="#807700" vector-effect="non-scaling-stroke" d="
  M 303.65 280.71
  Q 300.67 282.46 301.95 286.02
  Q 307.46 301.42 309.96 309.00
  Q 320.81 342.01 325.45 376.39
  Q 326.38 383.27 327.30 395.43
  C 328.49 411.20 329.17 423.52 336.68 436.61
  C 339.54 441.59 340.14 445.19 336.06 449.35"
/>
<path stroke="#fff12b" vector-effect="non-scaling-stroke" d="
  M 436.01 447.27
  Q 430.59 446.87 425.51 446.90
  C 423.26 446.91 421.25 446.23 418.97 445.97
  C 397.11 443.49 376.74 428.82 366.59 409.45
  Q 363.71 403.94 361.18 396.40
  C 357.14 384.33 354.15 375.07 349.77 364.85
  Q 339.26 340.34 327.44 320.26
  Q 319.72 307.15 306.34 287.42
  Q 304.54 284.75 303.65 280.71"
/>
<path stroke="#807a2b" vector-effect="non-scaling-stroke" d="
  M 444.49 48.16
  Q 440.73 54.10 434.36 51.62
  Q 403.85 39.76 372.52 46.86
  Q 295.45 64.35 218.25 81.21
  Q 206.87 83.69 195.56 86.43
  Q 191.25 87.47 189.74 88.81
  Q 186.27 91.88 191.54 96.70"
/>
<path stroke="#807700" vector-effect="non-scaling-stroke" d="
  M 191.54 96.70
  Q 200.48 101.39 205.22 103.56
  C 235.33 117.38 261.35 132.01 285.60 150.15
  Q 309.55 168.06 331.55 191.45
  C 338.13 198.44 347.18 209.72 354.75 216.25
  C 386.18 243.37 434.40 244.42 465.45 216.20
  C 493.02 191.13 503.34 150.18 492.39 114.51"
/>
<path stroke="#807a2b" vector-effect="non-scaling-stroke" d="
  M 492.39 114.51
  C 486.63 96.11 476.77 82.67 462.44 69.03
  Q 457.75 64.56 461.51 58.64"
/>
<path stroke="#fff12b" vector-effect="non-scaling-stroke" d="
  M 492.39 114.51
  Q 488.02 117.62 484.37 122.88
  C 482.75 125.22 479.48 127.27 477.68 128.86
  C 456.54 147.47 428.07 154.62 400.49 149.44
  Q 388.04 147.10 380.70 143.37
  Q 362.39 134.07 357.13 131.60
  Q 325.89 116.94 285.99 107.25
  Q 260.74 101.12 246.25 100.00
  Q 237.11 99.29 227.98 98.42
  Q 224.51 98.10 221.04 97.84
  Q 220.96 97.83 214.87 97.17
  C 211.11 96.76 207.23 97.40 203.55 96.46
  C 199.91 95.53 195.78 96.05 191.99 95.68
  Q 191.82 95.66 191.54 96.70"
/>
<path stroke="#807a2b" vector-effect="non-scaling-stroke" d="
  M 92.82 193.33
  Q 86.29 196.99 81.74 190.76
  Q 76.16 183.12 70.87 175.27
  C 64.59 165.94 58.37 154.85 52.18 144.58
  Q 49.82 140.65 44.61 141.60"
/>
<path stroke="#807700" vector-effect="non-scaling-stroke" d="
  M 44.61 141.60
  Q 38.96 142.87 38.28 148.75
  Q 27.21 244.06 16.15 339.36
  C 15.65 343.69 15.63 348.40 15.24 352.95
  Q 15.02 355.52 15.25 358.04
  C 15.64 362.34 15.79 367.03 16.39 370.81
  C 24.95 424.88 73.05 464.93 128.23 461.85
  C 149.98 460.64 171.65 452.63 188.09 438.08"
/>
<path stroke="#807a2b" vector-effect="non-scaling-stroke" d="
  M 188.09 438.08
  C 207.51 421.52 218.39 396.78 219.37 371.49
  C 220.54 341.37 207.88 313.61 184.74 294.26
  C 167.13 279.52 149.50 264.93 132.87 249.13
  Q 119.27 236.20 105.43 220.56
  Q 100.03 214.47 105.30 208.87"
/>
<path stroke="#fff12b" vector-effect="non-scaling-stroke" d="
  M 188.09 438.08
  L 188.27 437.27
  Q 188.58 435.89 187.16 435.95
  Q 177.34 436.39 167.76 434.79
  C 128.58 428.25 95.51 403.27 79.56 366.50
  C 76.31 359.01 73.59 349.76 72.26 342.00
  Q 69.66 326.79 65.60 296.53
  C 60.81 260.76 55.82 225.02 50.94 189.26
  C 49.93 181.82 48.68 174.36 48.01 166.89
  C 47.62 162.56 46.40 158.10 46.03 153.76
  Q 45.82 151.28 45.46 149.41
  Q 44.75 145.70 44.61 141.60"
/>
</g>
<path fill="#000000" d="
  M 444.49 48.16
  Q 440.73 54.10 434.36 51.62
  Q 403.85 39.76 372.52 46.86
  Q 295.45 64.35 218.25 81.21
  Q 206.87 83.69 195.56 86.43
  Q 191.25 87.47 189.74 88.81
  Q 186.27 91.88 191.54 96.70
  Q 200.48 101.39 205.22 103.56
  C 235.33 117.38 261.35 132.01 285.60 150.15
  Q 309.55 168.06 331.55 191.45
  C 338.13 198.44 347.18 209.72 354.75 216.25
  C 386.18 243.37 434.40 244.42 465.45 216.20
  C 493.02 191.13 503.34 150.18 492.39 114.51
  C 486.63 96.11 476.77 82.67 462.44 69.03
  Q 457.75 64.56 461.51 58.64
  C 466.24 53.97 470.21 55.80 474.62 59.86
  Q 509.19 91.65 512.00 139.30
  L 512.00 148.79
  Q 511.62 151.13 511.41 153.48
  Q 508.07 190.82 484.39 218.26
  C 447.32 261.22 382.22 263.10 341.49 224.65
  Q 338.97 222.27 328.02 209.89
  C 294.03 171.47 253.39 142.88 207.74 121.52
  Q 195.99 116.03 184.49 110.04
  C 168.07 101.49 170.78 76.44 189.29 72.31
  Q 273.76 53.45 358.25 34.62
  Q 373.98 31.11 377.80 30.50
  Q 410.49 25.31 440.39 37.84
  Q 446.77 40.51 444.49 48.16
  Z"
/>
<path fill="#fff356" d="
  M 444.49 48.16
  Q 447.48 49.79 450.28 51.29
  C 454.23 53.40 457.71 56.14 461.51 58.64
  Q 457.75 64.56 462.44 69.03
  C 476.77 82.67 486.63 96.11 492.39 114.51
  Q 488.02 117.62 484.37 122.88
  C 482.75 125.22 479.48 127.27 477.68 128.86
  C 456.54 147.47 428.07 154.62 400.49 149.44
  Q 388.04 147.10 380.70 143.37
  Q 362.39 134.07 357.13 131.60
  Q 325.89 116.94 285.99 107.25
  Q 260.74 101.12 246.25 100.00
  Q 237.11 99.29 227.98 98.42
  Q 224.51 98.10 221.04 97.84
  Q 220.96 97.83 214.87 97.17
  C 211.11 96.76 207.23 97.40 203.55 96.46
  C 199.91 95.53 195.78 96.05 191.99 95.68
  Q 191.82 95.66 191.54 96.70
  Q 186.27 91.88 189.74 88.81
  Q 191.25 87.47 195.56 86.43
  Q 206.87 83.69 218.25 81.21
  Q 295.45 64.35 372.52 46.86
  Q 403.85 39.76 434.36 51.62
  Q 440.73 54.10 444.49 48.16
  Z"
/>
<path fill="#ffee00" d="
  M 492.39 114.51
  C 503.34 150.18 493.02 191.13 465.45 216.20
  C 434.40 244.42 386.18 243.37 354.75 216.25
  C 347.18 209.72 338.13 198.44 331.55 191.45
  Q 309.55 168.06 285.60 150.15
  C 261.35 132.01 235.33 117.38 205.22 103.56
  Q 200.48 101.39 191.54 96.70
  Q 191.82 95.66 191.99 95.68
  C 195.78 96.05 199.91 95.53 203.55 96.46
  C 207.23 97.40 211.11 96.76 214.87 97.17
  Q 220.96 97.83 221.04 97.84
  Q 224.51 98.10 227.98 98.42
  Q 237.11 99.29 246.25 100.00
  Q 260.74 101.12 285.99 107.25
  Q 325.89 116.94 357.13 131.60
  Q 362.39 134.07 380.70 143.37
  Q 388.04 147.10 400.49 149.44
  C 428.07 154.62 456.54 147.47 477.68 128.86
  C 479.48 127.27 482.75 125.22 484.37 122.88
  Q 488.02 117.62 492.39 114.51
  Z"
/>
<path fill="#000000" d="
  M 92.82 193.33
  Q 86.29 196.99 81.74 190.76
  Q 76.16 183.12 70.87 175.27
  C 64.59 165.94 58.37 154.85 52.18 144.58
  Q 49.82 140.65 44.61 141.60
  Q 38.96 142.87 38.28 148.75
  Q 27.21 244.06 16.15 339.36
  C 15.65 343.69 15.63 348.40 15.24 352.95
  Q 15.02 355.52 15.25 358.04
  C 15.64 362.34 15.79 367.03 16.39 370.81
  C 24.95 424.88 73.05 464.93 128.23 461.85
  C 149.98 460.64 171.65 452.63 188.09 438.08
  C 207.51 421.52 218.39 396.78 219.37 371.49
  C 220.54 341.37 207.88 313.61 184.74 294.26
  C 167.13 279.52 149.50 264.93 132.87 249.13
  Q 119.27 236.20 105.43 220.56
  Q 100.03 214.47 105.30 208.87
  C 110.79 205.28 114.06 207.69 118.01 212.16
  Q 136.91 233.50 153.73 248.03
  C 169.53 261.68 185.84 274.90 201.14 289.11
  C 212.68 299.83 221.85 313.91 227.35 328.30
  C 241.93 366.45 234.05 414.28 204.23 443.47
  C 201.18 446.45 198.15 449.56 194.89 452.11
  C 151.72 485.92 92.18 484.59 48.77 452.35
  C 40.76 446.40 33.76 439.02 27.35 431.45
  C 13.82 415.50 5.00 394.86 1.62 374.00
  C 0.83 369.13 0.59 363.28 0.00 357.90
  L 0.00 353.91
  C 0.53 348.62 0.58 342.99 1.15 338.05
  Q 12.20 242.65 23.25 147.25
  Q 24.61 135.59 33.16 130.20
  C 41.81 124.76 53.26 125.20 61.08 132.07
  Q 63.91 134.56 67.61 141.05
  Q 79.04 161.09 92.41 179.87
  C 95.94 184.81 97.62 188.77 92.82 193.33
  Z"
/>
<path fill="#fff356" d="
  M 92.82 193.33
  L 105.30 208.87
  Q 100.03 214.47 105.43 220.56
  Q 119.27 236.20 132.87 249.13
  C 149.50 264.93 167.13 279.52 184.74 294.26
  C 207.88 313.61 220.54 341.37 219.37 371.49
  C 218.39 396.78 207.51 421.52 188.09 438.08
  L 188.27 437.27
  Q 188.58 435.89 187.16 435.95
  Q 177.34 436.39 167.76 434.79
  C 128.58 428.25 95.51 403.27 79.56 366.50
  C 76.31 359.01 73.59 349.76 72.26 342.00
  Q 69.66 326.79 65.60 296.53
  C 60.81 260.76 55.82 225.02 50.94 189.26
  C 49.93 181.82 48.68 174.36 48.01 166.89
  C 47.62 162.56 46.40 158.10 46.03 153.76
  Q 45.82 151.28 45.46 149.41
  Q 44.75 145.70 44.61 141.60
  Q 49.82 140.65 52.18 144.58
  C 58.37 154.85 64.59 165.94 70.87 175.27
  Q 76.16 183.12 81.74 190.76
  Q 86.29 196.99 92.82 193.33
  Z"
/>
<path fill="#ffee00" d="
  M 44.61 141.60
  Q 44.75 145.70 45.46 149.41
  Q 45.82 151.28 46.03 153.76
  C 46.40 158.10 47.62 162.56 48.01 166.89
  C 48.68 174.36 49.93 181.82 50.94 189.26
  C 55.82 225.02 60.81 260.76 65.60 296.53
  Q 69.66 326.79 72.26 342.00
  C 73.59 349.76 76.31 359.01 79.56 366.50
  C 95.51 403.27 128.58 428.25 167.76 434.79
  Q 177.34 436.39 187.16 435.95
  Q 188.58 435.89 188.27 437.27
  L 188.09 438.08
  C 171.65 452.63 149.98 460.64 128.23 461.85
  C 73.05 464.93 24.95 424.88 16.39 370.81
  C 15.79 367.03 15.64 362.34 15.25 358.04
  Q 15.02 355.52 15.24 352.95
  C 15.63 348.40 15.65 343.69 16.15 339.36
  Q 27.21 244.06 38.28 148.75
  Q 38.96 142.87 44.61 141.60
  Z"
/>
<path fill="#000000" d="
  M 350.80 463.24
  C 355.06 456.48 360.74 460.17 366.11 462.56
  C 390.61 473.47 417.95 466.55 436.01 447.27
  Q 439.71 443.48 441.92 440.18
  C 458.97 414.70 457.88 381.32 438.46 357.57
  C 431.25 348.76 423.02 343.25 412.80 337.69
  Q 360.42 309.21 308.01 280.76
  Q 305.76 279.54 303.65 280.71
  Q 300.67 282.46 301.95 286.02
  Q 307.46 301.42 309.96 309.00
  Q 320.81 342.01 325.45 376.39
  Q 326.38 383.27 327.30 395.43
  C 328.49 411.20 329.17 423.52 336.68 436.61
  C 339.54 441.59 340.14 445.19 336.06 449.35
  Q 336.01 449.31 335.69 449.31
  Q 335.51 449.31 335.34 449.39
  C 329.82 452.01 326.71 449.32 323.91 444.53
  Q 316.04 431.07 314.20 417.25
  C 312.69 405.91 312.02 389.23 310.29 376.83
  C 306.07 346.68 298.27 319.67 287.50 290.51
  Q 285.42 284.87 287.88 278.02
  Q 291.78 267.13 302.74 265.23
  Q 309.10 264.12 315.42 267.56
  Q 369.74 297.11 424.03 326.72
  Q 454.75 343.47 465.21 376.00
  C 473.95 403.19 467.60 434.28 448.60 455.86
  C 425.15 482.49 388.22 490.62 356.20 474.60
  C 351.06 472.04 348.32 469.04 350.80 463.24
  Z"
/>
<path fill="#fff356" d="
  M 436.01 447.27
  Q 430.59 446.87 425.51 446.90
  C 423.26 446.91 421.25 446.23 418.97 445.97
  C 397.11 443.49 376.74 428.82 366.59 409.45
  Q 363.71 403.94 361.18 396.40
  C 357.14 384.33 354.15 375.07 349.77 364.85
  Q 339.26 340.34 327.44 320.26
  Q 319.72 307.15 306.34 287.42
  Q 304.54 284.75 303.65 280.71
  Q 305.76 279.54 308.01 280.76
  Q 360.42 309.21 412.80 337.69
  C 423.02 343.25 431.25 348.76 438.46 357.57
  C 457.88 381.32 458.97 414.70 441.92 440.18
  Q 439.71 443.48 436.01 447.27
  Z"
/>
<path fill="#ffee00" d="
  M 303.65 280.71
  Q 304.54 284.75 306.34 287.42
  Q 319.72 307.15 327.44 320.26
  Q 339.26 340.34 349.77 364.85
  C 354.15 375.07 357.14 384.33 361.18 396.40
  Q 363.71 403.94 366.59 409.45
  C 376.74 428.82 397.11 443.49 418.97 445.97
  C 421.25 446.23 423.26 446.91 425.51 446.90
  Q 430.59 446.87 436.01 447.27
  C 417.95 466.55 390.61 473.47 366.11 462.56
  C 360.74 460.17 355.06 456.48 350.80 463.24
  C 345.61 458.62 341.75 455.79 336.06 449.35
  C 340.14 445.19 339.54 441.59 336.68 436.61
  C 329.17 423.52 328.49 411.20 327.30 395.43
  Q 326.38 383.27 325.45 376.39
  Q 320.81 342.01 309.96 309.00
  Q 307.46 301.42 301.95 286.02
  Q 300.67 282.46 303.65 280.71
  Z"
/>
</svg>
