<?xml version="1.0" encoding="UTF-8" standalone="no"?>
<!DOCTYPE svg PUBLIC "-//W3C//DTD SVG 1.1//EN" "http://www.w3.org/Graphics/SVG/1.1/DTD/svg11.dtd">
<svg xmlns="http://www.w3.org/2000/svg" version="1.1" viewBox="0.00 0.00 512.00 512.00">
<g stroke-width="2.00" fill="none" stroke-linecap="butt">
<path stroke="#3b3e40" vector-effect="non-scaling-stroke" d="
  M 173.59 89.02
  C 158.21 75.34 139.82 64.09 120.47 56.72
  Q 119.98 56.54 119.50 56.73
  C 95.99 65.96 72.96 80.53 55.92 99.41
  Q 35.81 121.69 32.32 151.51
  A 0.44 0.44 0.0 0 0 32.76 152.00
  L 207.24 152.00
  Q 207.62 152.00 207.58 151.63
  C 205.20 126.57 192.24 105.60 173.59 89.02"
/>
<path stroke="#7e4a4b" vector-effect="non-scaling-stroke" d="
  M 374.94 125.10
  C 369.02 98.88 347.29 80.09 320.00 80.04
  Q 287.88 79.97 255.75 80.02
  Q 227.11 80.07 203.56 97.45
  Q 203.25 97.68 203.46 98.00
  L 211.56 110.85
  A 0.39 0.39 0.0 0 0 212.13 110.95
  Q 231.70 96.15 256.50 96.08
  Q 285.65 95.99 314.80 96.01
  C 325.12 96.02 332.83 96.81 340.73 101.78
  Q 359.94 113.87 359.95 137.50
  Q 359.99 231.64 360.01 325.74
  A 0.94 0.93 -76.4 0 0 360.51 326.57
  Q 367.48 330.31 373.24 335.77
  A 1.62 1.62 0.0 0 0 375.98 334.59
  Q 376.00 237.12 376.09 139.75
  Q 376.10 130.24 374.94 125.10"
/>
<path stroke="#742222" vector-effect="non-scaling-stroke" d="
  M 249.49 352.21
  C 253.78 364.28 265.91 369.48 278.09 367.81
  Q 278.37 367.77 278.46 367.50
  C 287.88 340.11 312.58 316.22 343.60 320.60
  A 0.35 0.35 0.0 0 0 344.00 320.25
  Q 344.00 228.13 344.04 136.50
  C 344.04 126.25 337.83 116.91 328.30 113.49
  Q 324.22 112.02 314.54 112.01
  Q 285.02 111.96 255.49 112.01
  Q 235.01 112.05 218.75 126.33
  Q 218.39 126.65 218.54 127.10
  Q 223.52 141.96 223.91 155.75
  C 224.93 191.92 219.41 230.83 205.69 265.09
  Q 205.32 266.02 206.03 266.73
  Q 219.22 279.91 232.06 292.44
  Q 238.13 298.36 241.46 303.29
  C 248.94 314.36 247.94 326.26 248.01 339.13
  Q 248.06 348.18 249.49 352.21"
/>
<path stroke="#303335" vector-effect="non-scaling-stroke" d="
  M 32.19 168.56
  C 32.70 214.25 43.36 261.28 71.22 298.48
  Q 72.00 299.52 72.00 298.22
  L 72.00 168.75
  A 0.75 0.74 -0.0 0 0 71.25 168.01
  L 32.75 168.00
  Q 32.19 168.00 32.19 168.56"
/>
<path stroke="#4d5154" vector-effect="non-scaling-stroke" d="
  M 183.02 191.56
  C 174.72 225.20 126.34 223.24 120.51 189.42
  C 119.51 183.61 120.05 175.47 119.97 168.72
  A 0.72 0.72 0.0 0 0 119.25 168.01
  L 88.50 168.00
  A 0.46 0.46 0.0 0 0 88.04 168.46
  Q 88.00 242.15 87.79 315.75
  Q 87.79 317.97 88.73 318.76
  Q 103.44 331.08 103.80 350.50
  Q 103.89 354.94 104.09 359.57
  Q 104.11 360.00 104.54 360.00
  L 135.50 360.00
  A 0.53 0.53 0.0 0 0 136.03 359.45
  C 135.69 348.27 136.12 338.87 142.05 329.25
  Q 144.25 325.69 150.39 319.55
  C 174.48 295.46 190.99 266.67 199.38 233.63
  Q 207.51 201.65 207.76 168.55
  Q 207.77 168.00 207.22 168.00
  L 184.52 168.00
  Q 184.02 168.00 184.02 168.50
  C 183.97 176.05 184.63 185.03 183.02 191.56"
/>
<path stroke="#303335" vector-effect="non-scaling-stroke" d="
  M 167.29 167.97
  L 136.67 168.03
  A 0.71 0.71 0.0 0 0 135.96 168.74
  L 135.99 183.71
  A 16.30 15.92 89.9 0 0 151.94 199.98
  L 152.14 199.98
  A 16.30 15.92 89.9 0 0 168.03 183.65
  L 168.00 168.68
  A 0.71 0.71 0.0 0 0 167.29 167.97"
/>
<path stroke="#7e4a4b" vector-effect="non-scaling-stroke" d="
  M 216.12 345.66
  C 217.23 375.74 241.32 399.83 271.72 399.91
  Q 272.09 399.91 272.14 399.54
  L 273.88 384.46
  Q 273.93 384.07 273.54 384.07
  C 250.22 383.88 232.11 367.07 232.04 343.75
  Q 232.01 334.26 231.80 324.75
  Q 231.57 314.93 225.60 308.90
  Q 212.14 295.31 198.50 281.86
  A 0.31 0.31 0.0 0 0 198.02 281.92
  L 189.15 297.25
  A 0.56 0.55 -53.1 0 0 189.24 297.93
  C 201.78 310.28 215.08 320.29 215.89 339.88
  Q 216.01 342.77 216.12 345.66"
/>
<path stroke="#7b6655" vector-effect="non-scaling-stroke" d="
  M 350.80 339.67
  Q 333.10 331.21 316.45 342.21
  C 293.90 357.11 287.02 386.56 288.06 411.75
  C 289.53 447.19 324.69 463.71 355.26 452.04
  Q 381.29 442.10 383.52 413.97
  C 385.63 387.25 377.64 352.49 350.80 339.67"
/>
<path stroke="#6f5c4d" vector-effect="non-scaling-stroke" d="
  M 445.51 350.50
  Q 422.38 341.84 397.74 344.75
  Q 391.67 345.47 384.91 348.74
  Q 384.44 348.97 384.72 349.42
  C 395.83 367.17 400.32 388.18 400.15 409.00
  Q 400.02 424.20 393.81 437.96
  Q 393.65 438.31 394.03 438.40
  Q 401.77 440.23 409.75 440.15
  C 435.03 439.90 464.67 431.16 476.60 406.29
  C 488.39 381.71 467.06 358.57 445.51 350.50"
/>
<path stroke="#303335" vector-effect="non-scaling-stroke" d="
  M 101.07 376.47
  L 86.65 410.12
  Q 86.41 410.69 87.00 410.50
  Q 102.35 405.55 117.67 400.51
  Q 120.32 399.64 122.03 400.22
  Q 137.40 405.44 152.98 410.53
  Q 153.61 410.73 153.35 410.12
  L 138.98 376.59
  A 0.97 0.97 0.0 0 0 138.09 376.00
  L 101.79 376.00
  A 0.79 0.77 11.3 0 0 101.07 376.47"
/>
<path stroke="#3b3e40" vector-effect="non-scaling-stroke" d="
  M 135.95 104.00
  A 23.96 23.96 0.0 0 0 111.99 80.04
  A 23.96 23.96 0.0 0 0 88.03 104.00
  A 23.96 23.96 0.0 0 0 111.99 127.96
  A 23.96 23.96 0.0 0 0 135.95 104.00"
/>
<path stroke="#303335" vector-effect="non-scaling-stroke" d="
  M 119.98 104.00
  A 7.98 7.98 0.0 0 0 112.00 96.02
  A 7.98 7.98 0.0 0 0 104.02 104.00
  A 7.98 7.98 0.0 0 0 112.00 111.98
  A 7.98 7.98 0.0 0 0 119.98 104.00"
/>
<path stroke="#742222" vector-effect="non-scaling-stroke" d="
  M 327.98 159.99
  A 31.98 31.98 0.0 0 0 296.00 128.01
  A 31.98 31.98 0.0 0 0 264.02 159.99
  A 31.98 31.98 0.0 0 0 296.00 191.97
  A 31.98 31.98 0.0 0 0 327.98 159.99"
/>
<path stroke="#7d746c" vector-effect="non-scaling-stroke" d="
  M 311.97 160.00
  A 15.97 15.97 0.0 0 0 296.00 144.03
  A 15.97 15.97 0.0 0 0 280.03 160.00
  A 15.97 15.97 0.0 0 0 296.00 175.97
  A 15.97 15.97 0.0 0 0 311.97 160.00"
/>
</g>
<path fill="#000000" d="
  M 392.50 329.26
  Q 410.26 326.65 431.25 330.00
  C 458.25 334.32 485.58 350.52 493.91 378.26
  C 498.85 394.67 494.45 411.56 484.05 424.79
  C 466.15 447.60 436.51 455.96 408.75 456.11
  Q 396.32 456.18 384.56 452.31
  A 0.98 0.96 -58.3 0 0 383.56 452.56
  C 369.40 466.98 346.52 474.15 326.64 471.10
  C 296.75 466.52 276.35 447.70 272.30 416.99
  Q 272.17 415.98 271.15 415.96
  C 246.11 415.38 223.34 402.74 210.52 381.31
  Q 199.78 363.37 200.02 340.25
  C 200.09 333.20 196.14 327.56 190.81 322.16
  Q 185.31 316.59 179.76 311.11
  A 0.36 0.36 0.0 0 0 179.22 311.14
  Q 172.45 319.77 164.61 327.62
  C 159.95 332.28 154.37 337.37 152.75 344.17
  C 151.44 349.70 151.96 357.56 152.02 363.88
  Q 152.05 366.49 153.10 368.93
  Q 163.67 393.58 174.23 418.23
  Q 175.94 422.21 175.99 423.99
  C 176.11 428.02 172.60 431.79 168.52 431.98
  Q 166.89 432.06 163.58 430.96
  Q 142.08 423.80 120.53 416.61
  A 1.65 1.65 0.0 0 0 119.47 416.61
  Q 96.87 424.15 74.01 431.76
  C 67.58 433.90 62.11 426.62 64.82 420.33
  Q 75.86 394.66 86.88 368.98
  Q 87.95 366.50 87.98 363.83
  C 88.11 351.67 89.37 341.37 80.54 332.95
  C 32.09 286.75 15.09 223.12 16.06 157.75
  C 16.91 99.86 67.85 58.21 117.76 40.35
  C 119.47 39.73 121.18 39.97 123.01 40.64
  Q 162.64 55.06 192.45 84.82
  Q 192.79 85.17 193.24 84.97
  Q 194.60 84.37 195.89 83.45
  Q 216.68 68.58 241.55 65.01
  Q 248.26 64.04 261.49 64.03
  Q 286.25 63.99 311.01 63.98
  Q 324.95 63.97 330.95 64.88
  C 362.21 69.61 387.14 94.81 391.33 126.28
  Q 392.03 131.58 392.02 146.25
  Q 391.92 237.55 392.04 328.86
  Q 392.04 329.33 392.50 329.26
  Z
  M 173.59 89.02
  C 158.21 75.34 139.82 64.09 120.47 56.72
  Q 119.98 56.54 119.50 56.73
  C 95.99 65.96 72.96 80.53 55.92 99.41
  Q 35.81 121.69 32.32 151.51
  A 0.44 0.44 0.0 0 0 32.76 152.00
  L 207.24 152.00
  Q 207.62 152.00 207.58 151.63
  C 205.20 126.57 192.24 105.60 173.59 89.02
  Z
  M 374.94 125.10
  C 369.02 98.88 347.29 80.09 320.00 80.04
  Q 287.88 79.97 255.75 80.02
  Q 227.11 80.07 203.56 97.45
  Q 203.25 97.68 203.46 98.00
  L 211.56 110.85
  A 0.39 0.39 0.0 0 0 212.13 110.95
  Q 231.70 96.15 256.50 96.08
  Q 285.65 95.99 314.80 96.01
  C 325.12 96.02 332.83 96.81 340.73 101.78
  Q 359.94 113.87 359.95 137.50
  Q 359.99 231.64 360.01 325.74
  A 0.94 0.93 -76.4 0 0 360.51 326.57
  Q 367.48 330.31 373.24 335.77
  A 1.62 1.62 0.0 0 0 375.98 334.59
  Q 376.00 237.12 376.09 139.75
  Q 376.10 130.24 374.94 125.10
  Z
  M 249.49 352.21
  C 253.78 364.28 265.91 369.48 278.09 367.81
  Q 278.37 367.77 278.46 367.50
  C 287.88 340.11 312.58 316.22 343.60 320.60
  A 0.35 0.35 0.0 0 0 344.00 320.25
  Q 344.00 228.13 344.04 136.50
  C 344.04 126.25 337.83 116.91 328.30 113.49
  Q 324.22 112.02 314.54 112.01
  Q 285.02 111.96 255.49 112.01
  Q 235.01 112.05 218.75 126.33
  Q 218.39 126.65 218.54 127.10
  Q 223.52 141.96 223.91 155.75
  C 224.93 191.92 219.41 230.83 205.69 265.09
  Q 205.32 266.02 206.03 266.73
  Q 219.22 279.91 232.06 292.44
  Q 238.13 298.36 241.46 303.29
  C 248.94 314.36 247.94 326.26 248.01 339.13
  Q 248.06 348.18 249.49 352.21
  Z
  M 32.19 168.56
  C 32.70 214.25 43.36 261.28 71.22 298.48
  Q 72.00 299.52 72.00 298.22
  L 72.00 168.75
  A 0.75 0.74 -0.0 0 0 71.25 168.01
  L 32.75 168.00
  Q 32.19 168.00 32.19 168.56
  Z
  M 183.02 191.56
  C 174.72 225.20 126.34 223.24 120.51 189.42
  C 119.51 183.61 120.05 175.47 119.97 168.72
  A 0.72 0.72 0.0 0 0 119.25 168.01
  L 88.50 168.00
  A 0.46 0.46 0.0 0 0 88.04 168.46
  Q 88.00 242.15 87.79 315.75
  Q 87.79 317.97 88.73 318.76
  Q 103.44 331.08 103.80 350.50
  Q 103.89 354.94 104.09 359.57
  Q 104.11 360.00 104.54 360.00
  L 135.50 360.00
  A 0.53 0.53 0.0 0 0 136.03 359.45
  C 135.69 348.27 136.12 338.87 142.05 329.25
  Q 144.25 325.69 150.39 319.55
  C 174.48 295.46 190.99 266.67 199.38 233.63
  Q 207.51 201.65 207.76 168.55
  Q 207.77 168.00 207.22 168.00
  L 184.52 168.00
  Q 184.02 168.00 184.02 168.50
  C 183.97 176.05 184.63 185.03 183.02 191.56
  Z
  M 167.29 167.97
  L 136.67 168.03
  A 0.71 0.71 0.0 0 0 135.96 168.74
  L 135.99 183.71
  A 16.30 15.92 89.9 0 0 151.94 199.98
  L 152.14 199.98
  A 16.30 15.92 89.9 0 0 168.03 183.65
  L 168.00 168.68
  A 0.71 0.71 0.0 0 0 167.29 167.97
  Z
  M 216.12 345.66
  C 217.23 375.74 241.32 399.83 271.72 399.91
  Q 272.09 399.91 272.14 399.54
  L 273.88 384.46
  Q 273.93 384.07 273.54 384.07
  C 250.22 383.88 232.11 367.07 232.04 343.75
  Q 232.01 334.26 231.80 324.75
  Q 231.57 314.93 225.60 308.90
  Q 212.14 295.31 198.50 281.86
  A 0.31 0.31 0.0 0 0 198.02 281.92
  L 189.15 297.25
  A 0.56 0.55 -53.1 0 0 189.24 297.93
  C 201.78 310.28 215.08 320.29 215.89 339.88
  Q 216.01 342.77 216.12 345.66
  Z
  M 350.80 339.67
  Q 333.10 331.21 316.45 342.21
  C 293.90 357.11 287.02 386.56 288.06 411.75
  C 289.53 447.19 324.69 463.71 355.26 452.04
  Q 381.29 442.10 383.52 413.97
  C 385.63 387.25 377.64 352.49 350.80 339.67
  Z
  M 445.51 350.50
  Q 422.38 341.84 397.74 344.75
  Q 391.67 345.47 384.91 348.74
  Q 384.44 348.97 384.72 349.42
  C 395.83 367.17 400.32 388.18 400.15 409.00
  Q 400.02 424.20 393.81 437.96
  Q 393.65 438.31 394.03 438.40
  Q 401.77 440.23 409.75 440.15
  C 435.03 439.90 464.67 431.16 476.60 406.29
  C 488.39 381.71 467.06 358.57 445.51 350.50
  Z
  M 101.07 376.47
  L 86.65 410.12
  Q 86.41 410.69 87.00 410.50
  Q 102.35 405.55 117.67 400.51
  Q 120.32 399.64 122.03 400.22
  Q 137.40 405.44 152.98 410.53
  Q 153.61 410.73 153.35 410.12
  L 138.98 376.59
  A 0.97 0.97 0.0 0 0 138.09 376.00
  L 101.79 376.00
  A 0.79 0.77 11.3 0 0 101.07 376.47
  Z"
/>
<path fill="#757c80" d="
  M 120.47 56.72
  C 139.82 64.09 158.21 75.34 173.59 89.02
  C 192.24 105.60 205.20 126.57 207.58 151.63
  Q 207.62 152.00 207.24 152.00
  L 32.76 152.00
  A 0.44 0.44 0.0 0 1 32.32 151.51
  Q 35.81 121.69 55.92 99.41
  C 72.96 80.53 95.99 65.96 119.50 56.73
  Q 119.98 56.54 120.47 56.72
  Z
  M 135.95 104.00
  A 23.96 23.96 0.0 0 0 111.99 80.04
  A 23.96 23.96 0.0 0 0 88.03 104.00
  A 23.96 23.96 0.0 0 0 111.99 127.96
  A 23.96 23.96 0.0 0 0 135.95 104.00
  Z"
/>
<path fill="#000000" d="
  M 135.95 104.00
  A 23.96 23.96 0.0 0 1 111.99 127.96
  A 23.96 23.96 0.0 0 1 88.03 104.00
  A 23.96 23.96 0.0 0 1 111.99 80.04
  A 23.96 23.96 0.0 0 1 135.95 104.00
  Z
  M 119.98 104.00
  A 7.98 7.98 0.0 0 0 112.00 96.02
  A 7.98 7.98 0.0 0 0 104.02 104.00
  A 7.98 7.98 0.0 0 0 112.00 111.98
  A 7.98 7.98 0.0 0 0 119.98 104.00
  Z"
/>
<path fill="#fc9495" d="
  M 320.00 80.04
  C 347.29 80.09 369.02 98.88 374.94 125.10
  Q 376.10 130.24 376.09 139.75
  Q 376.00 237.12 375.98 334.59
  A 1.62 1.62 0.0 0 1 373.24 335.77
  Q 367.48 330.31 360.51 326.57
  A 0.94 0.93 -76.4 0 1 360.01 325.74
  Q 359.99 231.64 359.95 137.50
  Q 359.94 113.87 340.73 101.78
  C 332.83 96.81 325.12 96.02 314.80 96.01
  Q 285.65 95.99 256.50 96.08
  Q 231.70 96.15 212.13 110.95
  A 0.39 0.39 0.0 0 1 211.56 110.85
  L 203.46 98.00
  Q 203.25 97.68 203.56 97.45
  Q 227.11 80.07 255.75 80.02
  Q 287.88 79.97 320.00 80.04
  Z"
/>
<circle fill="#606669" cx="112.00" cy="104.00" r="7.98"/>
<path fill="#e74444" d="
  M 278.09 367.81
  C 265.91 369.48 253.78 364.28 249.49 352.21
  Q 248.06 348.18 248.01 339.13
  C 247.94 326.26 248.94 314.36 241.46 303.29
  Q 238.13 298.36 232.06 292.44
  Q 219.22 279.91 206.03 266.73
  Q 205.32 266.02 205.69 265.09
  C 219.41 230.83 224.93 191.92 223.91 155.75
  Q 223.52 141.96 218.54 127.10
  Q 218.39 126.65 218.75 126.33
  Q 235.01 112.05 255.49 112.01
  Q 285.02 111.96 314.54 112.01
  Q 324.22 112.02 328.30 113.49
  C 337.83 116.91 344.04 126.25 344.04 136.50
  Q 344.00 228.13 344.00 320.25
  A 0.35 0.35 0.0 0 1 343.60 320.60
  C 312.58 316.22 287.88 340.11 278.46 367.50
  Q 278.37 367.77 278.09 367.81
  Z
  M 327.98 159.99
  A 31.98 31.98 0.0 0 0 296.00 128.01
  A 31.98 31.98 0.0 0 0 264.02 159.99
  A 31.98 31.98 0.0 0 0 296.00 191.97
  A 31.98 31.98 0.0 0 0 327.98 159.99
  Z"
/>
<path fill="#000000" d="
  M 327.98 159.99
  A 31.98 31.98 0.0 0 1 296.00 191.97
  A 31.98 31.98 0.0 0 1 264.02 159.99
  A 31.98 31.98 0.0 0 1 296.00 128.01
  A 31.98 31.98 0.0 0 1 327.98 159.99
  Z
  M 311.97 160.00
  A 15.97 15.97 0.0 0 0 296.00 144.03
  A 15.97 15.97 0.0 0 0 280.03 160.00
  A 15.97 15.97 0.0 0 0 296.00 175.97
  A 15.97 15.97 0.0 0 0 311.97 160.00
  Z"
/>
<circle fill="#fae8d8" cx="296.00" cy="160.00" r="15.97"/>
<path fill="#606669" d="
  M 71.22 298.48
  C 43.36 261.28 32.70 214.25 32.19 168.56
  Q 32.19 168.00 32.75 168.00
  L 71.25 168.01
  A 0.75 0.74 -0.0 0 1 72.00 168.75
  L 72.00 298.22
  Q 72.00 299.52 71.22 298.48
  Z"
/>
<path fill="#99a2a7" d="
  M 120.51 189.42
  C 126.34 223.24 174.72 225.20 183.02 191.56
  C 184.63 185.03 183.97 176.05 184.02 168.50
  Q 184.02 168.00 184.52 168.00
  L 207.22 168.00
  Q 207.77 168.00 207.76 168.55
  Q 207.51 201.65 199.38 233.63
  C 190.99 266.67 174.48 295.46 150.39 319.55
  Q 144.25 325.69 142.05 329.25
  C 136.12 338.87 135.69 348.27 136.03 359.45
  A 0.53 0.53 0.0 0 1 135.50 360.00
  L 104.54 360.00
  Q 104.11 360.00 104.09 359.57
  Q 103.89 354.94 103.80 350.50
  Q 103.44 331.08 88.73 318.76
  Q 87.79 317.97 87.79 315.75
  Q 88.00 242.15 88.04 168.46
  A 0.46 0.46 0.0 0 1 88.50 168.00
  L 119.25 168.01
  A 0.72 0.72 0.0 0 1 119.97 168.72
  C 120.05 175.47 119.51 183.61 120.51 189.42
  Z"
/>
<path fill="#606669" d="
  M 167.29 167.97
  A 0.71 0.71 0.0 0 1 168.00 168.68
  L 168.03 183.65
  A 16.30 15.92 89.9 0 1 152.14 199.98
  L 151.94 199.98
  A 16.30 15.92 89.9 0 1 135.99 183.71
  L 135.96 168.74
  A 0.71 0.71 0.0 0 1 136.67 168.03
  L 167.29 167.97
  Z"
/>
<path fill="#fc9495" d="
  M 271.72 399.91
  C 241.32 399.83 217.23 375.74 216.12 345.66
  Q 216.01 342.77 215.89 339.88
  C 215.08 320.29 201.78 310.28 189.24 297.93
  A 0.56 0.55 -53.1 0 1 189.15 297.25
  L 198.02 281.92
  A 0.31 0.31 0.0 0 1 198.50 281.86
  Q 212.14 295.31 225.60 308.90
  Q 231.57 314.93 231.80 324.75
  Q 232.01 334.26 232.04 343.75
  C 232.11 367.07 250.22 383.88 273.54 384.07
  Q 273.93 384.07 273.88 384.46
  L 272.14 399.54
  Q 272.09 399.91 271.72 399.91
  Z"
/>
<path fill="#f5cbaa" d="
  M 350.80 339.67
  C 377.64 352.49 385.63 387.25 383.52 413.97
  Q 381.29 442.10 355.26 452.04
  C 324.69 463.71 289.53 447.19 288.06 411.75
  C 287.02 386.56 293.90 357.11 316.45 342.21
  Q 333.10 331.21 350.80 339.67
  Z"
/>
<path fill="#deb89a" d="
  M 445.51 350.50
  C 467.06 358.57 488.39 381.71 476.60 406.29
  C 464.67 431.16 435.03 439.90 409.75 440.15
  Q 401.77 440.23 394.03 438.40
  Q 393.65 438.31 393.81 437.96
  Q 400.02 424.20 400.15 409.00
  C 400.32 388.18 395.83 367.17 384.72 349.42
  Q 384.44 348.97 384.91 348.74
  Q 391.67 345.47 397.74 344.75
  Q 422.38 341.84 445.51 350.50
  Z"
/>
<path fill="#606669" d="
  M 101.07 376.47
  A 0.79 0.77 11.3 0 1 101.79 376.00
  L 138.09 376.00
  A 0.97 0.97 0.0 0 1 138.98 376.59
  L 153.35 410.12
  Q 153.61 410.73 152.98 410.53
  Q 137.40 405.44 122.03 400.22
  Q 120.32 399.64 117.67 400.51
  Q 102.35 405.55 87.00 410.50
  Q 86.41 410.69 86.65 410.12
  L 101.07 376.47
  Z"
/>
</svg>
